{"title":"THX 1138 (1971) 1080p BDRip Multilanguage PT-BR","uid":13753043,"size":4816213031,"categoryP":"video","categoryS":"hd___movies","magnet":"?xt=urn:btih:0f7860161570502f2ed58ba755a687834e4736a3&amp;dn=THX+1138+%281971%29+1080p+BDRip+Multilanguage+PT-BR&amp;tr=udp%3A%2F%2Ftracker.leechers-paradise.org%3A6969&amp;tr=udp%3A%2F%2Fzer0day.ch%3A1337&amp;tr=udp%3A%2F%2Fopen.demonii.com%3A1337&amp;tr=udp%3A%2F%2Ftracker.coppersurfer.tk%3A6969&amp;tr=udp%3A%2F%2Fexodus.desync.com%3A6969","seeders":2,"leechers":3,"uploader":null,"files":1,"time":1457176914,"description":"Audio: English\r\nLegendas/Subtitles (MKV track): Português, Danish, Dutch, English, Finnish, French, German, Japanese, Norwegian, Spanish, Swedish\r\n\r\n=======================================\r\n'THX 1138' is a chilling look at a 25th-century totalitarian state where mankind is stripped of any individuality. People are numbered drones, and a government-enforced program of sedating drugs controls the populace. The story's title character, THX, is a factory worker whose life is irrevocably changed when he stops taking his mind-numbing drugs.\r\n\r\n\r\n&quot;THX 1138&quot; is derived from a prize-winning short that George Lucas made in 1967, when he was 21 years old.\r\n\r\n========================================\r\nVideo\r\nID                             : 1\r\nFormat                         : AVC\r\nFormat/Info                    : Advanced Video Codec\r\nFormat profile                 :   \r\nFormat settings, CABAC         : Yes\r\nFormat settings, ReFrames      : 4 frames\r\nCodec ID                       : V_MPEG4/ISO/AVC\r\nDuration                       : 1h 28mn\r\nBit rate                       : 5 599 Kbps\r\nWidth                          : 1 920 pixels\r\nHeight                         : 1 080 pixels\r\nDisplay aspect ratio           : 16:9\r\nFrame rate mode                : Constant\r\nFrame rate                     : 23.976 fps\r\nColor space                    : YUV\r\nChroma subsampling             : 4:2:0\r\nBit depth                      : 8 bits\r\nScan type                      : Progressive\r\nBits/(Pixel*Frame)             : 0.113\r\nStream size                    : 3.46 GiB (77%)\r\n\r\nAudio\r\nID                             : 2\r\nFormat                         : DTS\r\nFormat/Info                    : Digital Theater Systems\r\nMode                           : 16\r\nFormat settings, Endianness    : Big\r\nCodec ID                       : A_DTS\r\nDuration                       : 1h 28mn\r\nBit rate mode                  : Constant\r\nBit rate                       : 1 509 Kbps\r\nChannel(s)                     : 6 channels\r\nChannel positions              : Front: L C R, Side: L R, LFE\r\nSampling rate                  : 48.0 KHz\r\nBit depth                      : 24 bits\r\nCompression mode               : Lossy\r\nStream size                    : 956 MiB (21%)\r\nLanguage                       : English\r\nDefault                        : Yes\r\nForced                         : No","torrent":{"xt":"urn:btih:0f7860161570502f2ed58ba755a687834e4736a3","amp;dn":"THX+1138+%281971%29+1080p+BDRip+Multilanguage+PT-BR","amp;tr":["udp%3A%2F%2Ftracker.leechers-paradise.org%3A6969","udp%3A%2F%2Fzer0day.ch%3A1337","udp%3A%2F%2Fopen.demonii.com%3A1337","udp%3A%2F%2Ftracker.coppersurfer.tk%3A6969","udp%3A%2F%2Fexodus.desync.com%3A6969"],"infoHash":"0f7860161570502f2ed58ba755a687834e4736a3","infoHashBuffer":{"type":"Buffer","data":[15,120,96,22,21,112,80,47,46,213,139,167,85,166,135,131,78,71,54,163]},"announce":[],"urlList":[]}}